<svg xmlns="http://www.w3.org/2000/svg" version="1.1" xmlns:xlink="http://www.w3.org/1999/xlink" xmlns:svgjs="http://svgjs.dev/svgjs" width="1500" height="125" viewBox="0 0 1500 125"><g transform="matrix(1,0,0,1,-0.9090909090909918,-1.2433642999336882)"><svg viewBox="0 0 396 33" data-background-color="#ffffff" preserveAspectRatio="xMidYMid meet" height="125" width="1500" xmlns="http://www.w3.org/2000/svg" xmlns:xlink="http://www.w3.org/1999/xlink"><g id="tight-bounds" transform="matrix(1,0,0,1,0.2400000000000091,0.3282481751824946)"><svg viewBox="0 0 395.52 32.34350364963503" height="32.34350364963503" width="395.52"><g><svg viewBox="0 0 395.52 32.34350364963503" height="32.34350364963503" width="395.52"><g><svg viewBox="0 0 395.52 32.34350364963503" height="32.34350364963503" width="395.52"><g id="textblocktransform"><svg viewBox="0 0 395.52 32.34350364963503" height="32.34350364963503" width="395.52" id="textblock"><g><svg viewBox="0 0 395.52 32.34350364963503" height="32.34350364963503" width="395.52"><g transform="matrix(1,0,0,1,0,0)"><svg width="395.52" viewBox="3.25 -35.01 428.09 35.01" height="32.34350364963503" data-palette-color="#2a2c35"><path d="M27.76-7.01L27.76 0 3.25 0 3.25-35.01 10.25-35.01 10.25-7.01 27.76-7.01ZM37.99-13.99L52-13.99 52-21Q52-22.44 51.45-23.72 50.9-25 49.95-25.95 49-26.9 47.71-27.45 46.43-28 44.99-28L44.99-28Q43.55-28 42.27-27.45 40.99-26.9 40.04-25.95 39.08-25 38.54-23.72 37.99-22.44 37.99-21L37.99-21 37.99-13.99ZM59.01-21L59.01 0 52 0 52-7.01 37.99-7.01 37.99 0 31 0 31-21Q31-23.9 32.1-26.45 33.2-29 35.09-30.91 36.98-32.81 39.54-33.91 42.09-35.01 44.99-35.01L44.99-35.01Q47.9-35.01 50.45-33.91 53-32.81 54.9-30.91 56.81-29 57.91-26.45 59.01-23.9 59.01-21L59.01-21ZM64.79-21L85.3-21 85.3-14.36 64.79-14.36 64.79-21ZM105.53-28L98.53-28 98.53-13.99 105.53-13.99Q106.97-13.99 108.24-14.54 109.51-15.09 110.47-16.04 111.42-16.99 111.97-18.27 112.52-19.56 112.52-21L112.52-21Q112.52-22.44 111.97-23.72 111.42-25 110.47-25.95 109.51-26.9 108.24-27.45 106.97-28 105.53-28L105.53-28ZM98.53-7.01L98.53 0 91.52 0 91.52-35.01 105.53-35.01Q107.46-35.01 109.25-34.51 111.03-34.01 112.58-33.09 114.13-32.18 115.41-30.9 116.69-29.61 117.61-28.05 118.52-26.49 119.02-24.71 119.52-22.92 119.52-21L119.52-21Q119.52-19.19 119.07-17.48 118.62-15.77 117.78-14.23 116.94-12.7 115.72-11.4 114.49-10.11 112.98-9.16L112.98-9.16 116.86 0 109.42 0 106.36-7.06 98.53-7.01ZM148.11-7.01L148.11 0 124.11 0 124.11-35.01 148.11-35.01 148.11-28 131.12-28 131.12-21 142.62-21 142.62-13.99 131.12-13.99 131.12-7.01 148.11-7.01ZM150.57-24.51L150.57-24.51Q150.57-26.68 151.4-28.59 152.23-30.49 153.66-31.92 155.09-33.35 156.99-34.18 158.9-35.01 161.07-35.01L161.07-35.01 177.14-35.01 177.14-28 161.07-28Q160.34-28 159.7-27.73 159.07-27.47 158.59-26.99 158.12-26.51 157.85-25.88 157.58-25.24 157.58-24.51L157.58-24.51Q157.58-23.78 157.85-23.13 158.12-22.49 158.59-22.01 159.07-21.53 159.7-21.26 160.34-21 161.07-21L161.07-21 168.08-21Q170.25-21 172.17-20.18 174.08-19.36 175.51-17.93 176.94-16.5 177.76-14.59 178.58-12.67 178.58-10.5L178.58-10.5Q178.58-8.33 177.76-6.42 176.94-4.52 175.51-3.09 174.08-1.66 172.17-0.83 170.25 0 168.08 0L168.08 0 152.53 0 152.53-7.01 168.08-7.01Q168.81-7.01 169.45-7.28 170.08-7.54 170.56-8.02 171.03-8.5 171.3-9.13 171.57-9.77 171.57-10.5L171.57-10.5Q171.57-11.23 171.3-11.87 171.03-12.5 170.56-12.98 170.08-13.45 169.45-13.72 168.81-13.99 168.08-13.99L168.08-13.99 161.07-13.99Q158.9-13.99 156.99-14.82 155.09-15.65 153.66-17.08 152.23-18.51 151.4-20.42 150.57-22.34 150.57-24.51ZM197.37-28L197.37 0 190.39 0 190.39-28 179.87-28 179.87-35.01 207.87-35.01 207.87-28 197.37-28ZM217.12-13.99L231.13-13.99 231.13-21Q231.13-22.44 230.59-23.72 230.04-25 229.08-25.95 228.13-26.9 226.85-27.45 225.57-28 224.13-28L224.13-28Q222.69-28 221.41-27.45 220.12-26.9 219.17-25.95 218.22-25 217.67-23.72 217.12-22.44 217.12-21L217.12-21 217.12-13.99ZM238.14-21L238.14 0 231.13 0 231.13-7.01 217.12-7.01 217.12 0 210.14 0 210.14-21Q210.14-23.9 211.24-26.45 212.34-29 214.23-30.91 216.12-32.81 218.67-33.91 221.22-35.01 224.13-35.01L224.13-35.01Q227.03-35.01 229.58-33.91 232.14-32.81 234.04-30.91 235.94-29 237.04-26.45 238.14-23.9 238.14-21L238.14-21ZM271.59-35.01L271.59-13.99Q271.59-11.08 270.49-8.53 269.39-5.98 267.48-4.09 265.58-2.2 263.03-1.1 260.48 0 257.57 0L257.57 0Q254.67 0 252.12-1.1 249.56-2.2 247.67-4.09 245.78-5.98 244.68-8.53 243.58-11.08 243.58-13.99L243.58-13.99 243.58-35.01 250.57-35.01 250.57-13.99Q250.57-12.55 251.12-11.28 251.66-10.01 252.62-9.06 253.57-8.11 254.85-7.56 256.13-7.01 257.57-7.01L257.57-7.01Q259.01-7.01 260.29-7.56 261.58-8.11 262.53-9.06 263.48-10.01 264.03-11.28 264.58-12.55 264.58-13.99L264.58-13.99 264.58-35.01 271.59-35.01ZM291.68-28L284.67-28 284.67-13.99 291.68-13.99Q293.12-13.99 294.39-14.54 295.66-15.09 296.61-16.04 297.56-16.99 298.11-18.27 298.66-19.56 298.66-21L298.66-21Q298.66-22.44 298.11-23.72 297.56-25 296.61-25.95 295.66-26.9 294.39-27.45 293.12-28 291.68-28L291.68-28ZM284.67-7.01L284.67 0 277.66 0 277.66-35.01 291.68-35.01Q293.61-35.01 295.39-34.51 297.17-34.01 298.72-33.09 300.27-32.18 301.55-30.9 302.83-29.61 303.75-28.05 304.67-26.49 305.17-24.71 305.67-22.92 305.67-21L305.67-21Q305.67-19.19 305.21-17.48 304.76-15.77 303.92-14.23 303.08-12.7 301.86-11.4 300.64-10.11 299.12-9.16L299.12-9.16 303 0 295.56 0 292.51-7.06 284.67-7.01ZM316.85-13.99L330.86-13.99 330.86-21Q330.86-22.44 330.31-23.72 329.76-25 328.81-25.95 327.86-26.9 326.57-27.45 325.29-28 323.85-28L323.85-28Q322.41-28 321.13-27.45 319.85-26.9 318.9-25.95 317.94-25 317.39-23.72 316.85-22.44 316.85-21L316.85-21 316.85-13.99ZM337.87-21L337.87 0 330.86 0 330.86-7.01 316.85-7.01 316.85 0 309.86 0 309.86-21Q309.86-23.9 310.96-26.45 312.06-29 313.95-30.91 315.84-32.81 318.4-33.91 320.95-35.01 323.85-35.01L323.85-35.01Q326.76-35.01 329.31-33.91 331.86-32.81 333.76-30.91 335.67-29 336.77-26.45 337.87-23.9 337.87-21L337.87-21ZM371.95-35.01L371.95 0 364.45 0 350.95-23.05 350.95 0 343.94 0 343.94-35.01 351.44-35.01 364.94-11.94 364.94-35.01 371.95-35.01ZM393.13-28L393.13 0 386.15 0 386.15-28 375.63-28 375.63-35.01 403.63-35.01 403.63-28 393.13-28ZM431.34-7.01L431.34 0 407.34 0 407.34-35.01 431.34-35.01 431.34-28 414.35-28 414.35-21 425.85-21 425.85-13.99 414.35-13.99 414.35-7.01 431.34-7.01Z" opacity="1" transform="matrix(1,0,0,1,0,0)" fill="#2a2c35" class="wordmark-text-0" data-fill-palette-color="primary" id="text-0"></path></svg></g></svg></g></svg></g></svg></g></svg></g><defs></defs></svg><rect width="395.52" height="32.34350364963503" fill="none" stroke="none" visibility="hidden"></rect></g></svg></g></svg>